# xmcd
#
# Track frame offsets:
#	150
#	14740
#	28617
#	46260
#	62337
#	81545
#	101057
#	115265
#	133280
#	153110
#	171130
#	192197
#	209967
#	227385
#	243970
#	275915
#	292542
#	307342
#	325190
#
# Disc length: 4552
#
# Revision: 5
# Processed by: cddbd v1.5.1PL0 Copyright (c) Steve Scherf et al.
# Submitted via: ExactAudioCopy v0.90b4
# Normalized: r4:DSETVAR1
#
DISCID=1411c613
DTITLE=Various Artist - TM Century PrimeCuts 554P
DYEAR=2004
DGENRE=Pop
TTITLE0=Michael Buble - Sway
TTITLE1=Rod Stewart - Time After Time [Album Version]
TTITLE2=Luther Vandross - Buy Me A Rose [Album Version]
TTITLE3=Kelis - Trick Me [Radio Mix]
TTITLE4=Jennifer Lopez Feat. R. Kelly - Baby I Love U [Remix]
TTITLE5=Outkast - Roses [Radio Edit]
TTITLE6=Pastor Troy - I'm Ridin' Big Yo [Clean]
TTITLE7=Alicia Keys - If I Ain't Got You [Radio Edit]
TTITLE8=Mario Winans Feat. P. Diddy - I Don't Wanna Know
TTITLE9=Lonestar - Let's Be Us Again
TTITLE10=Cross Canadian Ragweed - Sick And Tired [Radio Mix]
TTITLE11=Cypress Hill - What's Your Number
TTITLE12=Lo-Pro - Sunday [Album Version]
TTITLE13=Yeah Yeah Yeahs - Maps
TTITLE14=No Doubt - It's My Life [Jacques Lu Conts Thin White Duke Mix]
TTITLE15=Mr. On vs. Jungle Brothers - Breathe (Don't Stop) [Radio Edit]
TTITLE16=Angel City Feat. Lara McAllen - Love Me Right [Radio Edit]
TTITLE17=Tree63 - Blessed Be Your Name [AC Mix]
TTITLE18=Jaci Velasquez - Unspoken
EXTD=Info by Nicepants - www.ubernet.org
EXTT0=
EXTT1=
EXTT2=
EXTT3=
EXTT4=
EXTT5=
EXTT6=
EXTT7=
EXTT8=
EXTT9=
EXTT10=
EXTT11=
EXTT12=
EXTT13=
EXTT14=
EXTT15=
EXTT16=
EXTT17=
EXTT18=
PLAYORDER=
